<svg xmlns="http://www.w3.org/2000/svg" viewBox="0 0 64 64" role="img" aria-label="Limestone calendar logo">
  <title>Limestone calendar logo</title>
  <!-- Lucide calendar-days, ISC license: https://lucide.dev/icons/calendar-days -->
  <g transform="translate(7 7) scale(2.083333)" fill="none" stroke="#ffffff" stroke-width="5.35" stroke-linecap="round" stroke-linejoin="round">
    <path d="M8 2v4"/>
    <path d="M16 2v4"/>
    <rect width="18" height="18" x="3" y="4" rx="2"/>
    <path d="M3 10h18"/>
    <path d="M8 14h.01"/>
    <path d="M12 14h.01"/>
    <path d="M16 14h.01"/>
    <path d="M8 18h.01"/>
    <path d="M12 18h.01"/>
    <path d="M16 18h.01"/>
  </g>
  <g transform="translate(7 7) scale(2.083333)" fill="none" stroke="#000000" stroke-width="2.55" stroke-linecap="round" stroke-linejoin="round">
    <path d="M8 2v4"/>
    <path d="M16 2v4"/>
    <rect width="18" height="18" x="3" y="4" rx="2"/>
    <path d="M3 10h18"/>
    <path d="M8 14h.01"/>
    <path d="M12 14h.01"/>
    <path d="M16 14h.01"/>
    <path d="M8 18h.01"/>
    <path d="M12 18h.01"/>
    <path d="M16 18h.01"/>
  </g>
</svg>
